<svg width="800" height="800" viewBox="0 0 680 680" role="img" xmlns="http://www.w3.org/2000/svg">
<title>SplitTank logo</title>
<defs>
  <radialGradient id="groundfade" cx="50%" cy="0%" r="100%" fx="50%" fy="0%">
    <stop offset="0%" stop-color="#8a5c1a" stop-opacity="1"/>
    <stop offset="60%" stop-color="#7a4e18" stop-opacity="0.5"/>
    <stop offset="100%" stop-color="#5a3610" stop-opacity="0"/>
  </radialGradient>
  <radialGradient id="crustfade" cx="50%" cy="0%" r="100%" fx="50%" fy="0%">
    <stop offset="0%" stop-color="#a06820" stop-opacity="0.9"/>
    <stop offset="55%" stop-color="#a06820" stop-opacity="0.35"/>
    <stop offset="100%" stop-color="#a06820" stop-opacity="0"/>
  </radialGradient>
</defs>
<circle cx="340" cy="340" r="295" fill="#c8a060"/>
<circle cx="340" cy="340" r="282" fill="#1a1008"/>
<circle cx="340" cy="340" r="267" fill="#c8a060"/>
<circle cx="340" cy="340" r="252" fill="#f2e4b8"/>
<circle cx="340" cy="340" r="240" fill="none" stroke="#7a4e18" stroke-width="5" stroke-dasharray="16 9" stroke-linecap="round"/>
<circle cx="340" cy="340" r="233" fill="none" stroke="#c8a060" stroke-width="1.5" stroke-dasharray="16 9" stroke-dashoffset="12" stroke-linecap="round"/>
<g transform="translate(340,108)">
  <polygon points="0,-20 5,-8 18,-8 8,2 12,15 0,7 -12,15 -8,2 -18,-8 -5,-8" fill="#8a3a18"/>
  <polygon points="0,-14 3,-6 12,-6 6,0 9,10 0,5 -9,10 -6,0 -12,-6 -3,-6" fill="#c8a060"/>
</g>
<g transform="translate(340,572)">
  <polygon points="0,-20 5,-8 18,-8 8,2 12,15 0,7 -12,15 -8,2 -18,-8 -5,-8" fill="#8a3a18"/>
  <polygon points="0,-14 3,-6 12,-6 6,0 9,10 0,5 -9,10 -6,0 -12,-6 -3,-6" fill="#c8a060"/>
</g>
<g transform="translate(108,340)">
  <polygon points="0,-14 3,-6 12,-6 6,0 9,10 0,5 -9,10 -6,0 -12,-6 -3,-6" fill="#8a3a18"/>
</g>
<g transform="translate(572,340)">
  <polygon points="0,-14 3,-6 12,-6 6,0 9,10 0,5 -9,10 -6,0 -12,-6 -3,-6" fill="#8a3a18"/>
</g>
<rect x="252" y="210" width="88" height="240" rx="6" fill="#7a4e18" stroke="#1a1008" stroke-width="1"/>
<rect x="340" y="210" width="88" height="240" rx="6" fill="#5a3610" stroke="#1a1008" stroke-width="1"/>
<line x1="260" y1="228" x2="332" y2="228" stroke="#1a1008" stroke-width="0.8" opacity="0.18"/>
<line x1="260" y1="242" x2="332" y2="242" stroke="#1a1008" stroke-width="0.8" opacity="0.18"/>
<line x1="260" y1="256" x2="332" y2="256" stroke="#1a1008" stroke-width="0.8" opacity="0.18"/>
<line x1="348" y1="228" x2="420" y2="228" stroke="#1a1008" stroke-width="0.8" opacity="0.18"/>
<line x1="348" y1="242" x2="420" y2="242" stroke="#1a1008" stroke-width="0.8" opacity="0.18"/>
<line x1="348" y1="256" x2="420" y2="256" stroke="#1a1008" stroke-width="0.8" opacity="0.18"/>
<rect x="262" y="220" width="70" height="50" rx="4" fill="#1a1008"/>
<rect x="348" y="220" width="70" height="50" rx="4" fill="#1a1008"/>
<text x="297" y="252" text-anchor="middle" font-family="Georgia, serif" font-size="22" font-weight="bold" fill="#c8a060">$</text>
<text x="383" y="252" text-anchor="middle" font-family="Georgia, serif" font-size="22" font-weight="bold" fill="#c8a060">$</text>
<line x1="252" y1="282" x2="428" y2="282" stroke="#1a1008" stroke-width="2"/>
<line x1="252" y1="378" x2="428" y2="378" stroke="#1a1008" stroke-width="2"/>
<rect x="262" y="292" width="70" height="76" rx="4" fill="#1a1008"/>
<rect x="348" y="292" width="70" height="76" rx="4" fill="#1a1008"/>
<circle cx="297" cy="330" r="26" fill="#c8a060"/>
<circle cx="297" cy="330" r="21" fill="#8a6020"/>
<circle cx="297" cy="330" r="17" fill="#c8a060"/>
<text x="297" y="336" text-anchor="middle" font-family="Georgia, serif" font-size="14" font-weight="bold" fill="#1a1008">½</text>
<circle cx="383" cy="330" r="26" fill="#c8a060"/>
<circle cx="383" cy="330" r="21" fill="#8a6020"/>
<circle cx="383" cy="330" r="17" fill="#c8a060"/>
<text x="383" y="336" text-anchor="middle" font-family="Georgia, serif" font-size="14" font-weight="bold" fill="#1a1008">½</text>
<rect x="270" y="388" width="54" height="24" rx="3" fill="#1a1008" opacity="0.6"/>
<rect x="356" y="388" width="54" height="24" rx="3" fill="#1a1008" opacity="0.6"/>
<line x1="276" y1="398" x2="318" y2="398" stroke="#c8a060" stroke-width="1.2" opacity="0.5"/>
<line x1="276" y1="406" x2="318" y2="406" stroke="#c8a060" stroke-width="1.2" opacity="0.5"/>
<line x1="362" y1="398" x2="404" y2="398" stroke="#c8a060" stroke-width="1.2" opacity="0.5"/>
<line x1="362" y1="406" x2="404" y2="406" stroke="#c8a060" stroke-width="1.2" opacity="0.5"/>
<rect x="246" y="200" width="188" height="14" rx="5" fill="#c8a060"/>
<rect x="254" y="194" width="172" height="10" rx="4" fill="#8a6020"/>
<polygon points="340,188 328,220 336,220 324,252 352,214 342,214" fill="#c8a060"/>
<polygon points="340,188 330,218 337,218 326,248 350,212 343,212" fill="#8a6020" opacity="0.35"/>
<line x1="340" y1="210" x2="340" y2="450" stroke="#f2e4b8" stroke-width="2" stroke-dasharray="6 4"/>
<rect x="155" y="444" width="370" height="76" rx="38" fill="url(#groundfade)"/>
<rect x="165" y="444" width="350" height="22" rx="16" fill="url(#crustfade)"/>
<rect x="244" y="438" width="192" height="10" rx="3" fill="#7a4e18"/>
<rect x="252" y="434" width="176" height="8" rx="2" fill="#8a6020"/>
<path d="M340 445 L338 456 L342 463 L337 472 L340 480 L336 490" fill="none" stroke="#3a2008" stroke-width="1.5" stroke-linecap="round" stroke-linejoin="round"/>
<path d="M338 456 L325 460 L314 463" fill="none" stroke="#3a2008" stroke-width="1.5" stroke-linecap="round" stroke-linejoin="round"/>
<path d="M325 460 L320 468 L313 474" fill="none" stroke="#3a2008" stroke-width="0.8" stroke-linecap="round"/>
<path d="M342 463 L355 466 L368 470" fill="none" stroke="#3a2008" stroke-width="1.5" stroke-linecap="round" stroke-linejoin="round"/>
<path d="M355 466 L358 474 L363 480" fill="none" stroke="#3a2008" stroke-width="0.8" stroke-linecap="round"/>
<path d="M222 448 L217 457 L209 463 L213 472" fill="none" stroke="#3a2008" stroke-width="1.5" stroke-linecap="round" stroke-linejoin="round"/>
<path d="M217 457 L208 455 L201 459" fill="none" stroke="#3a2008" stroke-width="0.8" stroke-linecap="round"/>
<path d="M460 449 L465 458 L472 463 L468 472" fill="none" stroke="#3a2008" stroke-width="1.5" stroke-linecap="round" stroke-linejoin="round"/>
<path d="M465 458 L474 456 L481 460" fill="none" stroke="#3a2008" stroke-width="0.8" stroke-linecap="round"/>
<path d="M280 450 L276 458 L271 462" fill="none" stroke="#3a2008" stroke-width="0.8" stroke-linecap="round"/>
<path d="M276 458 L283 464" fill="none" stroke="#3a2008" stroke-width="0.8" stroke-linecap="round"/>
<path d="M396 451 L401 459 L407 463" fill="none" stroke="#3a2008" stroke-width="0.8" stroke-linecap="round"/>
<path d="M401 459 L395 465" fill="none" stroke="#3a2008" stroke-width="0.8" stroke-linecap="round"/>
</svg>